<?xml version="1.0" encoding="UTF-8" standalone="no" ?>
<!DOCTYPE svg PUBLIC "-//W3C//DTD SVG 1.1//EN" "http://www.w3.org/Graphics/SVG/1.1/DTD/svg11.dtd">
<svg xmlns="http://www.w3.org/2000/svg" xmlns:xlink="http://www.w3.org/1999/xlink" version="1.1" width="1080" height="1080" viewBox="0 0 1080 1080" xml:space="preserve">
<desc>Created with Fabric.js 5.2.4</desc>
<defs>
</defs>
<g transform="matrix(1 0 0 1 540 540)" id="2d030a51-e433-4b7b-a746-4e957e9fb867"  >
<rect style="stroke: none; stroke-width: 1; stroke-dasharray: none; stroke-linecap: butt; stroke-dashoffset: 0; stroke-linejoin: miter; stroke-miterlimit: 4; fill: rgb(255,255,255); fill-rule: nonzero; opacity: 1; visibility: hidden;" vector-effect="non-scaling-stroke"  x="-540" y="-540" rx="0" ry="0" width="1080" height="1080" />
</g>
<g transform="matrix(1 0 0 1 540 540)" id="3583cc7a-87bc-471c-a188-3b1a5ab36ede"  >
</g>
<g transform="matrix(1 0 0 1 540 540)"  >
<rect style="stroke: none; stroke-width: 1; stroke-dasharray: none; stroke-linecap: butt; stroke-dashoffset: 0; stroke-linejoin: miter; stroke-miterlimit: 4; fill: rgb(255,255,255); fill-rule: nonzero; opacity: 1; visibility: hidden;" vector-effect="non-scaling-stroke"  x="-540" y="-540" rx="0" ry="0" width="1080" height="1080" />
</g>
<g transform="matrix(8.96 0 0 8.96 319.38 520.94)"  >
<path style="stroke: none; stroke-width: 1; stroke-dasharray: none; stroke-linecap: butt; stroke-dashoffset: 0; stroke-linejoin: miter; stroke-miterlimit: 4; fill: rgb(5,196,189); fill-rule: nonzero; opacity: 1;" vector-effect="non-scaling-stroke"  transform=" translate(159.66, 227.71)" d="M -149.3 -210.152 L -149.3 -245.273 C -149.28775246228284 -247.80764920365934 -151.32447003844726 -249.87653253228785 -153.859 -249.904 L -165.454 -249.904 C -167.98852996155276 -249.87653253228785 -170.02524753771718 -247.80764920365934 -170.013 -245.273 L -170.013 -210.152 C -170.0252435215865 -207.61751716958372 -167.98836941816577 -205.54892162256945 -165.454 -205.522 L -153.859 -205.522 C -151.32463058183424 -205.54892162256945 -149.2877564784135 -207.61751716958372 -149.3 -210.152 Z" stroke-linecap="round" />
</g>
<g transform="matrix(8.96 0 0 8.96 650.31 413.35)"  >
<path style="stroke: none; stroke-width: 1; stroke-dasharray: none; stroke-linecap: butt; stroke-dashoffset: 0; stroke-linejoin: miter; stroke-miterlimit: 4; fill: rgb(5,196,189); fill-rule: nonzero; opacity: 1;" vector-effect="non-scaling-stroke"  transform=" translate(97.62, 264.2)" d="M -74.949 -282.092 L -74.949 -234.61399999999998 C -74.93234808213981 -232.07927666735503 -76.96934272718165 -230.00874204462318 -79.50399999999999 -229.98399999999998 L -91.1 -229.98399999999998 C -93.6347611464647 -230.01037564208977 -95.67223960248857 -232.07913117967541 -95.66 -234.61399999999998 L -95.66 -273.234 C -95.63048884145985 -275.66360628357506 -97.57054400091994 -277.659985625084 -100 -277.7 L -116.571 -277.7 C -118.623 -277.7 -120.29899999999999 -279.807 -120.29899999999999 -282.384 L -120.29899999999999 -293.725 C -120.29899999999999 -296.303 -118.624 -298.40900000000005 -116.571 -298.40900000000005 L -91.67099999999999 -298.40900000000005 L -91.67099999999999 -298.38900000000007 C -91.62831903405295 -298.39644079170944 -91.5852495316555 -298.4014488733836 -91.54199999999999 -298.40400000000005 C -91.52375414926956 -298.4065328621913 -91.5052458507304 -298.4065328621913 -91.48699999999998 -298.40400000000005 C -82.55064037752422 -298.1484799183149 -75.33471686160294 -291.0234051458905 -74.96599999999998 -282.09100000000007 Z" stroke-linecap="round" />
</g>
<g transform="matrix(8.96 0 0 8.96 319.37 199.67)"  >
<path style="stroke: none; stroke-width: 1; stroke-dasharray: none; stroke-linecap: butt; stroke-dashoffset: 0; stroke-linejoin: miter; stroke-miterlimit: 4; fill: rgb(5,196,189); fill-rule: nonzero; opacity: 1;" vector-effect="non-scaling-stroke"  transform=" translate(159.66, 288.06)" d="M -165.455 -277.7 L -153.86 -277.7 C -151.3102154249118 -277.74329102676074 -149.27369042428336 -279.8369941805106 -149.30100000000002 -282.387 L -149.30100000000002 -293.725 C -149.27369042428336 -296.2750058194894 -151.31021542491183 -298.3687089732393 -153.86 -298.41200000000003 L -165.455 -298.41200000000003 C -168.0047845750882 -298.3687089732393 -170.04130957571667 -296.2750058194894 -170.014 -293.725 L -170.014 -282.387 C -170.04130957571667 -279.8369941805106 -168.0047845750882 -277.74329102676074 -165.455 -277.7 Z" stroke-linecap="round" />
</g>
<g transform="matrix(9.07 0 0 9.07 541.21 413.87)"  >
<path style="stroke: none; stroke-width: 1; stroke-dasharray: none; stroke-linecap: butt; stroke-dashoffset: 0; stroke-linejoin: miter; stroke-miterlimit: 4; fill: rgb(5,196,189); fill-rule: nonzero; opacity: 1;" vector-effect="non-scaling-stroke"  transform=" translate(109.95, 239.55)" d="M -115.965 -229.191 L -103.93 -229.191 C -101.49952208885942 -229.22828498920737 -99.55817146816604 -231.22645781059862 -99.59100000000001 -233.657 L -99.59100000000001 -245.43900000000002 C -99.55983385198124 -247.86871369881777 -101.50038952814997 -249.86562107242767 -103.93 -249.90400000000002 L -115.965 -249.90400000000002 C -118.39508229493204 -249.86671369348846 -120.33627182397402 -247.869154060584 -120.304 -245.43900000000002 L -120.304 -233.657 C -120.33793665930554 -231.2260169806413 -118.39595051749143 -229.22719003679669 -115.965 -229.191 Z" stroke-linecap="round" />
</g>
<g transform="matrix(8.96 0 0 8.96 540.04 627.03)"  >
<path style="stroke: none; stroke-width: 1; stroke-dasharray: none; stroke-linecap: butt; stroke-dashoffset: 0; stroke-linejoin: miter; stroke-miterlimit: 4; fill: rgb(5,196,189); fill-rule: nonzero; opacity: 1;" vector-effect="non-scaling-stroke"  transform=" translate(109.95, 191.8)" d="M -115.965 -181.44 L -103.93 -181.44 C -101.49952208885942 -181.47728498920736 -99.55817146816604 -183.4754578105986 -99.59100000000001 -185.906 L -99.59100000000001 -197.68800000000002 C -99.55983385198124 -200.11771369881777 -101.50038952814997 -202.11462107242767 -103.93 -202.15300000000002 L -115.965 -202.15300000000002 C -118.39508229493204 -202.11571369348846 -120.33627182397402 -200.118154060584 -120.304 -197.68800000000002 L -120.304 -185.906 C -120.33793665930554 -183.4750169806413 -118.39595051749143 -181.47619003679668 -115.965 -181.44 Z" stroke-linecap="round" />
</g>
<g transform="matrix(8.96 0 0 8.96 540.01 841.52)" style=""  >
		<text xml:space="preserve" font-family="Raleway" font-size="26" font-style="normal" font-weight="900" style="stroke: none; stroke-width: 1; stroke-dasharray: none; stroke-linecap: butt; stroke-dashoffset: 0; stroke-linejoin: miter; stroke-miterlimit: 4; fill: rgb(4,122,112); fill-rule: nonzero; opacity: 1; white-space: pre;" ><tspan x="-34.67" y="8.17" >Kkutr</tspan></text>
</g>
</svg>